<svg version="1.1" xmlns="http://www.w3.org/2000/svg" xmlns:xlink="http://www.w3.org/1999/xlink" width="396.1806640625" height="68"><defs/><g><text fill="#eeeeee" stroke="none" font-family="Arial" font-size="24px" font-style="normal" font-weight="normal" text-decoration="none" x="0" y="0">UNREGISTERED</text><text fill="#eeeeee" stroke="none" font-family="Arial" font-size="24px" font-style="normal" font-weight="normal" text-decoration="none" x="0" y="30">UNREGISTERED</text><text fill="#eeeeee" stroke="none" font-family="Arial" font-size="24px" font-style="normal" font-weight="normal" text-decoration="none" x="0" y="60">UNREGISTERED</text><text fill="#eeeeee" stroke="none" font-family="Arial" font-size="24px" font-style="normal" font-weight="normal" text-decoration="none" x="200" y="0">UNREGISTERED</text><text fill="#eeeeee" stroke="none" font-family="Arial" font-size="24px" font-style="normal" font-weight="normal" text-decoration="none" x="200" y="30">UNREGISTERED</text><text fill="#eeeeee" stroke="none" font-family="Arial" font-size="24px" font-style="normal" font-weight="normal" text-decoration="none" x="200" y="60">UNREGISTERED</text><g transform="translate(-10,-10) scale(1,1)"><path fill="#C0C0C0" stroke="none" d="M 74.174072265625 38.5 C 74.174072265625 32.1487248 79.322797065625 27 85.674072265625 27 C 92.025347465625 27 97.174072265625 32.1487248 97.174072265625 38.5 C 97.174072265625 44.8512752 92.025347465625 50 85.674072265625 50 C 79.322797065625 50 74.174072265625 44.8512752 74.174072265625 38.5 Z" opacity="0.2"/></g><g transform="translate(-10,-10) scale(1,1)"><path fill="#ffffff" stroke="none" d="M 67.174072265625 31.5 C 67.174072265625 25.1487248 72.322797065625 20 78.674072265625 20 C 85.025347465625 20 90.174072265625 25.1487248 90.174072265625 31.5 C 90.174072265625 37.8512752 85.025347465625 43 78.674072265625 43 C 72.322797065625 43 67.174072265625 37.8512752 67.174072265625 31.5 Z"/></g><g transform="translate(-10,-10) scale(1,1)"><path fill="none" stroke="#000000" d="M 67.174072265625 31.5 C 67.174072265625 25.1487248 72.322797065625 20 78.674072265625 20 C 85.025347465625 20 90.174072265625 25.1487248 90.174072265625 31.5 C 90.174072265625 37.8512752 85.025347465625 43 78.674072265625 43 C 72.322797065625 43 67.174072265625 37.8512752 67.174072265625 31.5 Z" stroke-miterlimit="10"/></g><g transform="translate(-10,-10) scale(1,1)"><g><path fill="none" stroke="none"/><text fill="#000000" stroke="none" font-family="Arial" font-size="13px" font-style="normal" font-weight="bold" text-decoration="none" x="28.81640625" y="62.5">ObjapiRepository</text></g></g><g transform="translate(-10,-10) scale(1,1)"><path fill="#C0C0C0" stroke="none" d="M 214.568603515625 38.5 C 214.568603515625 32.1487248 219.717328315625 27 226.068603515625 27 C 232.419878715625 27 237.568603515625 32.1487248 237.568603515625 38.5 C 237.568603515625 44.8512752 232.419878715625 50 226.068603515625 50 C 219.717328315625 50 214.568603515625 44.8512752 214.568603515625 38.5 Z" opacity="0.2"/></g><g transform="translate(-10,-10) scale(1,1)"><path fill="#ffffff" stroke="none" d="M 207.568603515625 31.5 C 207.568603515625 25.1487248 212.717328315625 20 219.068603515625 20 C 225.419878715625 20 230.568603515625 25.1487248 230.568603515625 31.5 C 230.568603515625 37.8512752 225.419878715625 43 219.068603515625 43 C 212.717328315625 43 207.568603515625 37.8512752 207.568603515625 31.5 Z"/></g><g transform="translate(-10,-10) scale(1,1)"><path fill="none" stroke="#000000" d="M 207.568603515625 31.5 C 207.568603515625 25.1487248 212.717328315625 20 219.068603515625 20 C 225.419878715625 20 230.568603515625 25.1487248 230.568603515625 31.5 C 230.568603515625 37.8512752 225.419878715625 43 219.068603515625 43 C 212.717328315625 43 207.568603515625 37.8512752 207.568603515625 31.5 Z" stroke-miterlimit="10"/></g><g transform="translate(-10,-10) scale(1,1)"><g><path fill="none" stroke="none"/><text fill="#000000" stroke="none" font-family="Arial" font-size="13px" font-style="normal" font-weight="bold" text-decoration="none" x="168.490478515625" y="62.5">ObjrepRepository</text></g></g><g transform="translate(-10,-10) scale(1,1)"><path fill="#C0C0C0" stroke="none" d="M 348.939208984375 38.5 C 348.939208984375 32.1487248 354.087933784375 27 360.439208984375 27 C 366.790484184375 27 371.939208984375 32.1487248 371.939208984375 38.5 C 371.939208984375 44.8512752 366.790484184375 50 360.439208984375 50 C 354.087933784375 50 348.939208984375 44.8512752 348.939208984375 38.5 Z" opacity="0.2"/></g><g transform="translate(-10,-10) scale(1,1)"><path fill="#ffffff" stroke="none" d="M 341.939208984375 31.5 C 341.939208984375 25.1487248 347.087933784375 20 353.439208984375 20 C 359.790484184375 20 364.939208984375 25.1487248 364.939208984375 31.5 C 364.939208984375 37.8512752 359.790484184375 43 353.439208984375 43 C 347.087933784375 43 341.939208984375 37.8512752 341.939208984375 31.5 Z"/></g><g transform="translate(-10,-10) scale(1,1)"><path fill="none" stroke="#000000" d="M 341.939208984375 31.5 C 341.939208984375 25.1487248 347.087933784375 20 353.439208984375 20 C 359.790484184375 20 364.939208984375 25.1487248 364.939208984375 31.5 C 364.939208984375 37.8512752 359.790484184375 43 353.439208984375 43 C 347.087933784375 43 341.939208984375 37.8512752 341.939208984375 31.5 Z" stroke-miterlimit="10"/></g><g transform="translate(-10,-10) scale(1,1)"><g><path fill="none" stroke="none"/><text fill="#000000" stroke="none" font-family="Arial" font-size="13px" font-style="normal" font-weight="bold" text-decoration="none" x="308.64697265625" y="62.5">UserRepository</text></g></g></g></svg>