<svg version="1.1" xmlns="http://www.w3.org/2000/svg" xmlns:xlink="http://www.w3.org/1999/xlink" width="340.43310546875" height="269"><defs/><g><text fill="#eeeeee" stroke="none" font-family="Arial" font-size="24px" font-style="normal" font-weight="normal" text-decoration="none" x="0" y="0">UNREGISTERED</text><text fill="#eeeeee" stroke="none" font-family="Arial" font-size="24px" font-style="normal" font-weight="normal" text-decoration="none" x="0" y="30">UNREGISTERED</text><text fill="#eeeeee" stroke="none" font-family="Arial" font-size="24px" font-style="normal" font-weight="normal" text-decoration="none" x="0" y="60">UNREGISTERED</text><text fill="#eeeeee" stroke="none" font-family="Arial" font-size="24px" font-style="normal" font-weight="normal" text-decoration="none" x="0" y="90">UNREGISTERED</text><text fill="#eeeeee" stroke="none" font-family="Arial" font-size="24px" font-style="normal" font-weight="normal" text-decoration="none" x="0" y="120">UNREGISTERED</text><text fill="#eeeeee" stroke="none" font-family="Arial" font-size="24px" font-style="normal" font-weight="normal" text-decoration="none" x="0" y="150">UNREGISTERED</text><text fill="#eeeeee" stroke="none" font-family="Arial" font-size="24px" font-style="normal" font-weight="normal" text-decoration="none" x="0" y="180">UNREGISTERED</text><text fill="#eeeeee" stroke="none" font-family="Arial" font-size="24px" font-style="normal" font-weight="normal" text-decoration="none" x="0" y="210">UNREGISTERED</text><text fill="#eeeeee" stroke="none" font-family="Arial" font-size="24px" font-style="normal" font-weight="normal" text-decoration="none" x="0" y="240">UNREGISTERED</text><text fill="#eeeeee" stroke="none" font-family="Arial" font-size="24px" font-style="normal" font-weight="normal" text-decoration="none" x="200" y="0">UNREGISTERED</text><text fill="#eeeeee" stroke="none" font-family="Arial" font-size="24px" font-style="normal" font-weight="normal" text-decoration="none" x="200" y="30">UNREGISTERED</text><text fill="#eeeeee" stroke="none" font-family="Arial" font-size="24px" font-style="normal" font-weight="normal" text-decoration="none" x="200" y="60">UNREGISTERED</text><text fill="#eeeeee" stroke="none" font-family="Arial" font-size="24px" font-style="normal" font-weight="normal" text-decoration="none" x="200" y="90">UNREGISTERED</text><text fill="#eeeeee" stroke="none" font-family="Arial" font-size="24px" font-style="normal" font-weight="normal" text-decoration="none" x="200" y="120">UNREGISTERED</text><text fill="#eeeeee" stroke="none" font-family="Arial" font-size="24px" font-style="normal" font-weight="normal" text-decoration="none" x="200" y="150">UNREGISTERED</text><text fill="#eeeeee" stroke="none" font-family="Arial" font-size="24px" font-style="normal" font-weight="normal" text-decoration="none" x="200" y="180">UNREGISTERED</text><text fill="#eeeeee" stroke="none" font-family="Arial" font-size="24px" font-style="normal" font-weight="normal" text-decoration="none" x="200" y="210">UNREGISTERED</text><text fill="#eeeeee" stroke="none" font-family="Arial" font-size="24px" font-style="normal" font-weight="normal" text-decoration="none" x="200" y="240">UNREGISTERED</text><g transform="translate(-10,-10) scale(1,1)"><rect fill="#C0C0C0" stroke="none" x="161.6279296875" y="27" width="19.599999999999994" height="15" opacity="0.2"/></g><g transform="translate(-10,-10) scale(1,1)"><rect fill="#C0C0C0" stroke="none" x="161.6279296875" y="41" width="49" height="25" opacity="0.2"/></g><g transform="translate(-10,-10) scale(1,1)"><rect fill="#ffffff" stroke="none" x="154.6279296875" y="35" width="49" height="24"/></g><g transform="translate(-10,-10) scale(1,1)"><path fill="none" stroke="#000000" d="M 154.6279296875 35 L 203.6279296875 35 L 203.6279296875 59 L 154.6279296875 59 L 154.6279296875 35 Z Z" stroke-miterlimit="10"/></g><g transform="translate(-10,-10) scale(1,1)"><rect fill="#ffffff" stroke="none" x="154.6279296875" y="20" width="19.599999999999994" height="15"/></g><g transform="translate(-10,-10) scale(1,1)"><path fill="none" stroke="#000000" d="M 154.6279296875 20 L 174.2279296875 20 L 174.2279296875 35 L 154.6279296875 35 L 154.6279296875 20 Z Z" stroke-miterlimit="10"/></g><g transform="translate(-10,-10) scale(1,1)"><rect fill="#ffffff" stroke="none" x="154.6279296875" y="34" width="49" height="25"/></g><g transform="translate(-10,-10) scale(1,1)"><path fill="none" stroke="#000000" d="M 154.6279296875 34 L 203.6279296875 34 L 203.6279296875 59 L 154.6279296875 59 L 154.6279296875 34 Z Z" stroke-miterlimit="10"/></g><g transform="translate(-10,-10) scale(1,1)"><g><path fill="none" stroke="none"/><text fill="#000000" stroke="none" font-family="Arial" font-size="13px" font-style="normal" font-weight="bold" text-decoration="none" x="166.842041015625" y="54.5">tech</text></g></g><g transform="translate(-10,-10) scale(1,1)"><rect fill="#C0C0C0" stroke="none" x="158.157470703125" y="97" width="24.97382812500001" height="15" opacity="0.2"/></g><g transform="translate(-10,-10) scale(1,1)"><rect fill="#C0C0C0" stroke="none" x="158.157470703125" y="111" width="62.4345703125" height="25" opacity="0.2"/></g><g transform="translate(-10,-10) scale(1,1)"><rect fill="#ffffff" stroke="none" x="151.157470703125" y="105" width="62.4345703125" height="24"/></g><g transform="translate(-10,-10) scale(1,1)"><path fill="none" stroke="#000000" d="M 151.157470703125 105 L 213.592041015625 105 L 213.592041015625 129 L 151.157470703125 129 L 151.157470703125 105 Z Z" stroke-miterlimit="10"/></g><g transform="translate(-10,-10) scale(1,1)"><rect fill="#ffffff" stroke="none" x="151.157470703125" y="90" width="24.97382812500001" height="15"/></g><g transform="translate(-10,-10) scale(1,1)"><path fill="none" stroke="#000000" d="M 151.157470703125 90 L 176.131298828125 90 L 176.131298828125 105 L 151.157470703125 105 L 151.157470703125 90 Z Z" stroke-miterlimit="10"/></g><g transform="translate(-10,-10) scale(1,1)"><rect fill="#ffffff" stroke="none" x="151.157470703125" y="104" width="62.4345703125" height="25"/></g><g transform="translate(-10,-10) scale(1,1)"><path fill="none" stroke="#000000" d="M 151.157470703125 104 L 213.592041015625 104 L 213.592041015625 129 L 151.157470703125 129 L 151.157470703125 104 Z Z" stroke-miterlimit="10"/></g><g transform="translate(-10,-10) scale(1,1)"><g><path fill="none" stroke="none"/><text fill="#000000" stroke="none" font-family="Arial" font-size="13px" font-style="normal" font-weight="bold" text-decoration="none" x="157.7998046875" y="124.5">noetzold</text></g></g><g transform="translate(-10,-10) scale(1,1)"><rect fill="#C0C0C0" stroke="none" x="161.6279296875" y="167" width="19.599999999999994" height="15" opacity="0.2"/></g><g transform="translate(-10,-10) scale(1,1)"><rect fill="#C0C0C0" stroke="none" x="161.6279296875" y="181" width="49" height="25" opacity="0.2"/></g><g transform="translate(-10,-10) scale(1,1)"><rect fill="#ffffff" stroke="none" x="154.6279296875" y="175" width="49" height="24"/></g><g transform="translate(-10,-10) scale(1,1)"><path fill="none" stroke="#000000" d="M 154.6279296875 175 L 203.6279296875 175 L 203.6279296875 199 L 154.6279296875 199 L 154.6279296875 175 Z Z" stroke-miterlimit="10"/></g><g transform="translate(-10,-10) scale(1,1)"><rect fill="#ffffff" stroke="none" x="154.6279296875" y="160" width="19.599999999999994" height="15"/></g><g transform="translate(-10,-10) scale(1,1)"><path fill="none" stroke="#000000" d="M 154.6279296875 160 L 174.2279296875 160 L 174.2279296875 175 L 154.6279296875 175 L 154.6279296875 160 Z Z" stroke-miterlimit="10"/></g><g transform="translate(-10,-10) scale(1,1)"><rect fill="#ffffff" stroke="none" x="154.6279296875" y="174" width="49" height="25"/></g><g transform="translate(-10,-10) scale(1,1)"><path fill="none" stroke="#000000" d="M 154.6279296875 174 L 203.6279296875 174 L 203.6279296875 199 L 154.6279296875 199 L 154.6279296875 174 Z Z" stroke-miterlimit="10"/></g><g transform="translate(-10,-10) scale(1,1)"><g><path fill="none" stroke="none"/><text fill="#000000" stroke="none" font-family="Arial" font-size="13px" font-style="normal" font-weight="bold" text-decoration="none" x="166.4833984375" y="194.5">reps</text></g></g><g transform="translate(-10,-10) scale(1,1)"><rect fill="#C0C0C0" stroke="none" x="27" y="237" width="27.5814453125" height="15" opacity="0.2"/></g><g transform="translate(-10,-10) scale(1,1)"><rect fill="#C0C0C0" stroke="none" x="27" y="251" width="68.95361328125" height="25" opacity="0.2"/></g><g transform="translate(-10,-10) scale(1,1)"><rect fill="#ffffff" stroke="none" x="20" y="245" width="68.95361328125" height="24"/></g><g transform="translate(-10,-10) scale(1,1)"><path fill="none" stroke="#000000" d="M 20 245 L 88.95361328125 245 L 88.95361328125 269 L 20 269 L 20 245 Z Z" stroke-miterlimit="10"/></g><g transform="translate(-10,-10) scale(1,1)"><rect fill="#ffffff" stroke="none" x="20" y="230" width="27.5814453125" height="15"/></g><g transform="translate(-10,-10) scale(1,1)"><path fill="none" stroke="#000000" d="M 20 230 L 47.5814453125 230 L 47.5814453125 245 L 20 245 L 20 230 Z Z" stroke-miterlimit="10"/></g><g transform="translate(-10,-10) scale(1,1)"><rect fill="#ffffff" stroke="none" x="20" y="244" width="68.95361328125" height="25"/></g><g transform="translate(-10,-10) scale(1,1)"><path fill="none" stroke="#000000" d="M 20 244 L 88.95361328125 244 L 88.95361328125 269 L 20 269 L 20 244 Z Z" stroke-miterlimit="10"/></g><g transform="translate(-10,-10) scale(1,1)"><g><path fill="none" stroke="none"/><text fill="#000000" stroke="none" font-family="Arial" font-size="13px" font-style="normal" font-weight="bold" text-decoration="none" x="27.74365234375" y="264.5">controller</text></g></g><g transform="translate(-10,-10) scale(1,1)"><rect fill="#C0C0C0" stroke="none" x="121.6279296875" y="237" width="19.599999999999994" height="15" opacity="0.2"/></g><g transform="translate(-10,-10) scale(1,1)"><rect fill="#C0C0C0" stroke="none" x="121.6279296875" y="251" width="49" height="25" opacity="0.2"/></g><g transform="translate(-10,-10) scale(1,1)"><rect fill="#ffffff" stroke="none" x="114.6279296875" y="245" width="49" height="24"/></g><g transform="translate(-10,-10) scale(1,1)"><path fill="none" stroke="#000000" d="M 114.6279296875 245 L 163.6279296875 245 L 163.6279296875 269 L 114.6279296875 269 L 114.6279296875 245 Z Z" stroke-miterlimit="10"/></g><g transform="translate(-10,-10) scale(1,1)"><rect fill="#ffffff" stroke="none" x="114.6279296875" y="230" width="19.599999999999994" height="15"/></g><g transform="translate(-10,-10) scale(1,1)"><path fill="none" stroke="#000000" d="M 114.6279296875 230 L 134.2279296875 230 L 134.2279296875 245 L 114.6279296875 245 L 114.6279296875 230 Z Z" stroke-miterlimit="10"/></g><g transform="translate(-10,-10) scale(1,1)"><rect fill="#ffffff" stroke="none" x="114.6279296875" y="244" width="49" height="25"/></g><g transform="translate(-10,-10) scale(1,1)"><path fill="none" stroke="#000000" d="M 114.6279296875 244 L 163.6279296875 244 L 163.6279296875 269 L 114.6279296875 269 L 114.6279296875 244 Z Z" stroke-miterlimit="10"/></g><g transform="translate(-10,-10) scale(1,1)"><g><path fill="none" stroke="none"/><text fill="#000000" stroke="none" font-family="Arial" font-size="13px" font-style="normal" font-weight="bold" text-decoration="none" x="130.092041015625" y="264.5">dto</text></g></g><g transform="translate(-10,-10) scale(1,1)"><rect fill="#C0C0C0" stroke="none" x="201.6279296875" y="237" width="19.599999999999994" height="15" opacity="0.2"/></g><g transform="translate(-10,-10) scale(1,1)"><rect fill="#C0C0C0" stroke="none" x="201.6279296875" y="251" width="49" height="25" opacity="0.2"/></g><g transform="translate(-10,-10) scale(1,1)"><rect fill="#ffffff" stroke="none" x="194.6279296875" y="245" width="49" height="24"/></g><g transform="translate(-10,-10) scale(1,1)"><path fill="none" stroke="#000000" d="M 194.6279296875 245 L 243.6279296875 245 L 243.6279296875 269 L 194.6279296875 269 L 194.6279296875 245 Z Z" stroke-miterlimit="10"/></g><g transform="translate(-10,-10) scale(1,1)"><rect fill="#ffffff" stroke="none" x="194.6279296875" y="230" width="19.599999999999994" height="15"/></g><g transform="translate(-10,-10) scale(1,1)"><path fill="none" stroke="#000000" d="M 194.6279296875 230 L 214.2279296875 230 L 214.2279296875 245 L 194.6279296875 245 L 194.6279296875 230 Z Z" stroke-miterlimit="10"/></g><g transform="translate(-10,-10) scale(1,1)"><rect fill="#ffffff" stroke="none" x="194.6279296875" y="244" width="49" height="25"/></g><g transform="translate(-10,-10) scale(1,1)"><path fill="none" stroke="#000000" d="M 194.6279296875 244 L 243.6279296875 244 L 243.6279296875 269 L 194.6279296875 269 L 194.6279296875 244 Z Z" stroke-miterlimit="10"/></g><g transform="translate(-10,-10) scale(1,1)"><g><path fill="none" stroke="none"/><text fill="#000000" stroke="none" font-family="Arial" font-size="13px" font-style="normal" font-weight="bold" text-decoration="none" x="201.42431640625" y="264.5">model</text></g></g><g transform="translate(-10,-10) scale(1,1)"><rect fill="#C0C0C0" stroke="none" x="281.6279296875" y="237" width="29.028710937500023" height="15" opacity="0.2"/></g><g transform="translate(-10,-10) scale(1,1)"><rect fill="#C0C0C0" stroke="none" x="281.6279296875" y="251" width="72.57177734375" height="25" opacity="0.2"/></g><g transform="translate(-10,-10) scale(1,1)"><rect fill="#ffffff" stroke="none" x="274.6279296875" y="245" width="72.57177734375" height="24"/></g><g transform="translate(-10,-10) scale(1,1)"><path fill="none" stroke="#000000" d="M 274.6279296875 245 L 347.19970703125 245 L 347.19970703125 269 L 274.6279296875 269 L 274.6279296875 245 Z Z" stroke-miterlimit="10"/></g><g transform="translate(-10,-10) scale(1,1)"><rect fill="#ffffff" stroke="none" x="274.6279296875" y="230" width="29.028710937500023" height="15"/></g><g transform="translate(-10,-10) scale(1,1)"><path fill="none" stroke="#000000" d="M 274.6279296875 230 L 303.656640625 230 L 303.656640625 245 L 274.6279296875 245 L 274.6279296875 230 Z Z" stroke-miterlimit="10"/></g><g transform="translate(-10,-10) scale(1,1)"><rect fill="#ffffff" stroke="none" x="274.6279296875" y="244" width="72.57177734375" height="25"/></g><g transform="translate(-10,-10) scale(1,1)"><path fill="none" stroke="#000000" d="M 274.6279296875 244 L 347.19970703125 244 L 347.19970703125 269 L 274.6279296875 269 L 274.6279296875 244 Z Z" stroke-miterlimit="10"/></g><g transform="translate(-10,-10) scale(1,1)"><g><path fill="none" stroke="none"/><text fill="#000000" stroke="none" font-family="Arial" font-size="13px" font-style="normal" font-weight="bold" text-decoration="none" x="282.374755859375" y="264.5">repository</text></g></g><g transform="translate(-10,-10) scale(1,1)"><path fill="none" stroke="#000000" d="M 181 89 Q 180 75 180 60" stroke-miterlimit="10"/></g><g transform="translate(-10,-10) scale(1,1)"><path fill="#FFFFFF" stroke="none" d="M 173 67 C 173 63.1340064 176.1340064 60 180 60 C 183.8659936 60 187 63.1340064 187 67 C 187 70.8659936 183.8659936 74 180 74 C 176.1340064 74 173 70.8659936 173 67 Z"/></g><g transform="translate(-10,-10) scale(1,1)"><path fill="none" stroke="#000000" d="M 173 67 C 173 63.1340064 176.1340064 60 180 60 C 183.8659936 60 187 63.1340064 187 67 C 187 70.8659936 183.8659936 74 180 74 C 176.1340064 74 173 70.8659936 173 67 Z" stroke-miterlimit="10"/></g><g transform="translate(-10,-10) scale(1,1)"><path fill="none" stroke="#000000" d="M 180 74 L 180 60" stroke-miterlimit="10"/></g><g transform="translate(-10,-10) scale(1,1)"><path fill="none" stroke="#000000" d="M 187 67 L 173 67" stroke-miterlimit="10"/></g><g transform="translate(-10,-10) scale(1,1)"><path fill="none" stroke="#000000" d="M 180 159 Q 180 145 181 130" stroke-miterlimit="10"/></g><g transform="translate(-10,-10) scale(1,1)"><path fill="#FFFFFF" stroke="none" d="M 173.53436692633358 136.98449610499625 C 173.53436692633358 133.11850250499626 176.66837332633358 129.98449610499625 180.53436692633358 129.98449610499625 C 184.40036052633357 129.98449610499625 187.53436692633358 133.11850250499626 187.53436692633358 136.98449610499625 C 187.53436692633358 140.85048970499625 184.40036052633357 143.98449610499625 180.53436692633358 143.98449610499625 C 176.66837332633358 143.98449610499625 173.53436692633358 140.85048970499625 173.53436692633358 136.98449610499625 Z"/></g><g transform="translate(-10,-10) scale(1,1)"><path fill="none" stroke="#000000" d="M 173.53436692633358 136.98449610499625 C 173.53436692633358 133.11850250499626 176.66837332633358 129.98449610499625 180.53436692633358 129.98449610499625 C 184.40036052633357 129.98449610499625 187.53436692633358 133.11850250499626 187.53436692633358 136.98449610499625 C 187.53436692633358 140.85048970499625 184.40036052633357 143.98449610499625 180.53436692633358 143.98449610499625 C 176.66837332633358 143.98449610499625 173.53436692633358 140.85048970499625 173.53436692633358 136.98449610499625 Z" stroke-miterlimit="10"/></g><g transform="translate(-10,-10) scale(1,1)"><path fill="none" stroke="#000000" d="M 180.06873385266718 143.96899220999254 L 181 130" stroke-miterlimit="10"/></g><g transform="translate(-10,-10) scale(1,1)"><path fill="none" stroke="#000000" d="M 187.51886303132983 137.45012917866268 L 173.54987082133732 136.51886303132983" stroke-miterlimit="10"/></g><g transform="translate(-10,-10) scale(1,1)"><path fill="none" stroke="#000000" d="M 53 229 Q 52 215 154 186" stroke-miterlimit="10"/></g><g transform="translate(-10,-10) scale(1,1)"><path fill="#FFFFFF" stroke="none" d="M 140.2668470205988 187.91432780786897 C 140.2668470205988 184.04833420786898 143.4008534205988 180.91432780786897 147.2668470205988 180.91432780786897 C 151.13284062059878 180.91432780786897 154.2668470205988 184.04833420786898 154.2668470205988 187.91432780786897 C 154.2668470205988 191.78032140786897 151.13284062059878 194.91432780786897 147.2668470205988 194.91432780786897 C 143.4008534205988 194.91432780786897 140.2668470205988 191.78032140786897 140.2668470205988 187.91432780786897 Z"/></g><g transform="translate(-10,-10) scale(1,1)"><path fill="none" stroke="#000000" d="M 140.2668470205988 187.91432780786897 C 140.2668470205988 184.04833420786898 143.4008534205988 180.91432780786897 147.2668470205988 180.91432780786897 C 151.13284062059878 180.91432780786897 154.2668470205988 184.04833420786898 154.2668470205988 187.91432780786897 C 154.2668470205988 191.78032140786897 151.13284062059878 194.91432780786897 147.2668470205988 194.91432780786897 C 143.4008534205988 194.91432780786897 140.2668470205988 191.78032140786897 140.2668470205988 187.91432780786897 Z" stroke-miterlimit="10"/></g><g transform="translate(-10,-10) scale(1,1)"><path fill="none" stroke="#000000" d="M 140.53369404119755 189.82865561573794 L 154 186" stroke-miterlimit="10"/></g><g transform="translate(-10,-10) scale(1,1)"><path fill="none" stroke="#000000" d="M 149.18117482846776 194.64748078727018 L 145.35251921272982 181.18117482846776" stroke-miterlimit="10"/></g><g transform="translate(-10,-10) scale(1,1)"><path fill="none" stroke="#000000" d="M 140 229 Q 140 215 156 200" stroke-miterlimit="10"/></g><g transform="translate(-10,-10) scale(1,1)"><path fill="#FFFFFF" stroke="none" d="M 143.8932395710194 204.78758790216932 C 143.8932395710194 200.92159430216932 147.0272459710194 197.78758790216932 150.8932395710194 197.78758790216932 C 154.7592331710194 197.78758790216932 157.8932395710194 200.92159430216932 157.8932395710194 204.78758790216932 C 157.8932395710194 208.65358150216932 154.7592331710194 211.78758790216932 150.8932395710194 211.78758790216932 C 147.0272459710194 211.78758790216932 143.8932395710194 208.65358150216932 143.8932395710194 204.78758790216932 Z"/></g><g transform="translate(-10,-10) scale(1,1)"><path fill="none" stroke="#000000" d="M 143.8932395710194 204.78758790216932 C 143.8932395710194 200.92159430216932 147.0272459710194 197.78758790216932 150.8932395710194 197.78758790216932 C 154.7592331710194 197.78758790216932 157.8932395710194 200.92159430216932 157.8932395710194 204.78758790216932 C 157.8932395710194 208.65358150216932 154.7592331710194 211.78758790216932 150.8932395710194 211.78758790216932 C 147.0272459710194 211.78758790216932 143.8932395710194 208.65358150216932 143.8932395710194 204.78758790216932 Z" stroke-miterlimit="10"/></g><g transform="translate(-10,-10) scale(1,1)"><path fill="none" stroke="#000000" d="M 145.78647914203881 209.5751758043386 L 156 200" stroke-miterlimit="10"/></g><g transform="translate(-10,-10) scale(1,1)"><path fill="none" stroke="#000000" d="M 155.6808274731887 209.89434833114993 L 146.10565166885007 199.6808274731887" stroke-miterlimit="10"/></g><g transform="translate(-10,-10) scale(1,1)"><path fill="none" stroke="#000000" d="M 220 229 Q 220 215 203 200" stroke-miterlimit="10"/></g><g transform="translate(-10,-10) scale(1,1)"><path fill="#FFFFFF" stroke="none" d="M 201.24886498755563 204.6313514596079 C 201.24886498755563 200.76535785960792 204.38287138755564 197.6313514596079 208.24886498755563 197.6313514596079 C 212.11485858755563 197.6313514596079 215.24886498755563 200.76535785960792 215.24886498755563 204.6313514596079 C 215.24886498755563 208.4973450596079 212.11485858755563 211.6313514596079 208.24886498755563 211.6313514596079 C 204.38287138755564 211.6313514596079 201.24886498755563 208.4973450596079 201.24886498755563 204.6313514596079 Z"/></g><g transform="translate(-10,-10) scale(1,1)"><path fill="none" stroke="#000000" d="M 201.24886498755563 204.6313514596079 C 201.24886498755563 200.76535785960792 204.38287138755564 197.6313514596079 208.24886498755563 197.6313514596079 C 212.11485858755563 197.6313514596079 215.24886498755563 200.76535785960792 215.24886498755563 204.6313514596079 C 215.24886498755563 208.4973450596079 212.11485858755563 211.6313514596079 208.24886498755563 211.6313514596079 C 204.38287138755564 211.6313514596079 201.24886498755563 208.4973450596079 201.24886498755563 204.6313514596079 Z" stroke-miterlimit="10"/></g><g transform="translate(-10,-10) scale(1,1)"><path fill="none" stroke="#000000" d="M 213.4977299751113 209.26270291921585 L 203 200" stroke-miterlimit="10"/></g><g transform="translate(-10,-10) scale(1,1)"><path fill="none" stroke="#000000" d="M 212.88021644716355 199.38248647205228 L 203.61751352794772 209.88021644716355" stroke-miterlimit="10"/></g><g transform="translate(-10,-10) scale(1,1)"><path fill="none" stroke="#000000" d="M 309 229 Q 308 215 205 186" stroke-miterlimit="10"/></g><g transform="translate(-10,-10) scale(1,1)"><path fill="#FFFFFF" stroke="none" d="M 204.73802350090068 187.89711341287494 C 204.73802350090068 184.03111981287495 207.87202990090069 180.89711341287494 211.73802350090068 180.89711341287494 C 215.60401710090068 180.89711341287494 218.73802350090068 184.03111981287495 218.73802350090068 187.89711341287494 C 218.73802350090068 191.76310701287494 215.60401710090068 194.89711341287494 211.73802350090068 194.89711341287494 C 207.87202990090069 194.89711341287494 204.73802350090068 191.76310701287494 204.73802350090068 187.89711341287494 Z"/></g><g transform="translate(-10,-10) scale(1,1)"><path fill="none" stroke="#000000" d="M 204.73802350090068 187.89711341287494 C 204.73802350090068 184.03111981287495 207.87202990090069 180.89711341287494 211.73802350090068 180.89711341287494 C 215.60401710090068 180.89711341287494 218.73802350090068 184.03111981287495 218.73802350090068 187.89711341287494 C 218.73802350090068 191.76310701287494 215.60401710090068 194.89711341287494 211.73802350090068 194.89711341287494 C 207.87202990090069 194.89711341287494 204.73802350090068 191.76310701287494 204.73802350090068 187.89711341287494 Z" stroke-miterlimit="10"/></g><g transform="translate(-10,-10) scale(1,1)"><path fill="none" stroke="#000000" d="M 218.47604700180136 189.7942268257499 L 205 186" stroke-miterlimit="10"/></g><g transform="translate(-10,-10) scale(1,1)"><path fill="none" stroke="#000000" d="M 213.63513691377563 181.15908991197426 L 209.84091008802574 194.63513691377563" stroke-miterlimit="10"/></g></g></svg>